<mxfile host="app.diagrams.net" modified="2020-05-31T09:24:40.105Z" agent="5.0 (Macintosh; Intel Mac OS X 10_15_4) AppleWebKit/537.36 (KHTML, like Gecko) Chrome/81.0.4044.138 Safari/537.36" etag="sQ7uH35xE94eeNz_nTiM" version="13.1.10" type="github">
  <diagram id="6a731a19-8d31-9384-78a2-239565b7b9f0" name="Page-1">
    <mxGraphModel dx="946" dy="542" grid="1" gridSize="10" guides="1" tooltips="1" connect="1" arrows="1" fold="1" page="1" pageScale="1" pageWidth="1169" pageHeight="827" background="#ffffff" math="0" shadow="0">
      <root>
        <mxCell id="0" />
        <mxCell id="1" parent="0" />
        <mxCell id="tBkIKE94KdiAy-Hy8w5i-1808" value="" style="rounded=1;whiteSpace=wrap;html=1;shadow=1;glass=0;comic=0;strokeColor=#000000;strokeWidth=1;fillColor=none;dashed=1;" parent="1" vertex="1">
          <mxGeometry x="340" y="570" width="580" height="280" as="geometry" />
        </mxCell>
        <mxCell id="tBkIKE94KdiAy-Hy8w5i-1810" value="" style="rounded=1;whiteSpace=wrap;html=1;shadow=1;glass=0;comic=0;strokeColor=#000000;strokeWidth=1;fillColor=none;dashed=1;" parent="1" vertex="1">
          <mxGeometry x="310" y="250" width="650" height="230" as="geometry" />
        </mxCell>
        <mxCell id="tBkIKE94KdiAy-Hy8w5i-1809" value="" style="rounded=1;whiteSpace=wrap;html=1;shadow=1;glass=0;comic=0;strokeColor=#000000;strokeWidth=1;fillColor=none;dashed=1;" parent="1" vertex="1">
          <mxGeometry x="310" y="490" width="650" height="450" as="geometry" />
        </mxCell>
        <mxCell id="1769" value="Socket Layer" style="rounded=1;whiteSpace=wrap;html=1;shadow=0;labelBackgroundColor=none;strokeColor=none;strokeWidth=3;fillColor=#f5af58;fontFamily=Helvetica;fontSize=14;fontColor=#FFFFFF;align=center;spacing=5;arcSize=7;perimeterSpacing=2;fontStyle=1" parent="1" vertex="1">
          <mxGeometry x="500" y="280" width="150" height="60" as="geometry" />
        </mxCell>
        <mxCell id="1771" value="Protocol Layer" style="rounded=1;whiteSpace=wrap;html=1;shadow=0;labelBackgroundColor=none;strokeColor=none;strokeWidth=3;fillColor=#12aab5;fontFamily=Helvetica;fontSize=14;fontColor=#FFFFFF;align=center;spacing=5;fontStyle=1;arcSize=7;perimeterSpacing=2;" parent="1" vertex="1">
          <mxGeometry x="650" y="339.9999999999999" width="150" height="60" as="geometry" />
        </mxCell>
        <mxCell id="tBkIKE94KdiAy-Hy8w5i-1783" value="&lt;i&gt;skb&lt;/i&gt;" style="rounded=1;whiteSpace=wrap;html=1;shadow=0;labelBackgroundColor=none;strokeColor=#314354;strokeWidth=3;fillColor=#647687;fontFamily=Helvetica;fontSize=14;fontColor=#ffffff;align=center;spacing=5;fontStyle=1;arcSize=7;perimeterSpacing=2;" parent="1" vertex="1">
          <mxGeometry x="600" y="500" width="60" height="50" as="geometry" />
        </mxCell>
        <mxCell id="1764" value="XDP_DROP" style="rounded=1;whiteSpace=wrap;html=1;shadow=1;labelBackgroundColor=none;strokeColor=#B20000;strokeWidth=3;fillColor=#e51400;fontFamily=Helvetica;fontSize=14;fontColor=#ffffff;align=center;spacing=5;fontStyle=1;arcSize=7;perimeterSpacing=2;comic=0;glass=0;" parent="1" vertex="1">
          <mxGeometry x="420" y="780" width="110" height="60" as="geometry" />
        </mxCell>
        <mxCell id="tBkIKE94KdiAy-Hy8w5i-1796" value="XDP_PASS" style="rounded=1;whiteSpace=wrap;html=1;shadow=1;labelBackgroundColor=none;strokeColor=#3A5431;strokeWidth=3;fillColor=#6d8764;fontFamily=Helvetica;fontSize=14;fontColor=#ffffff;align=center;spacing=5;fontStyle=1;arcSize=7;perimeterSpacing=2;comic=0;glass=0;" parent="1" vertex="1">
          <mxGeometry x="600" y="580" width="110" height="60" as="geometry" />
        </mxCell>
        <mxCell id="tBkIKE94KdiAy-Hy8w5i-1797" value="" style="group" parent="1" vertex="1" connectable="0">
          <mxGeometry x="550" y="670" width="150" height="70" as="geometry" />
        </mxCell>
        <mxCell id="1749" value="ACL Program" style="rounded=1;whiteSpace=wrap;html=1;shadow=0;labelBackgroundColor=none;strokeColor=none;strokeWidth=3;fillColor=#2F5B7C;fontFamily=Helvetica;fontSize=16;fontColor=#FFFFFF;align=center;fontStyle=1;spacing=5;arcSize=7;perimeterSpacing=2;" parent="tBkIKE94KdiAy-Hy8w5i-1797" vertex="1">
          <mxGeometry width="150" height="70" as="geometry" />
        </mxCell>
        <mxCell id="tBkIKE94KdiAy-Hy8w5i-1798" value="XDP_REDIRECT" style="rounded=1;whiteSpace=wrap;html=1;shadow=1;labelBackgroundColor=none;strokeColor=#B09500;strokeWidth=3;fillColor=#E3C800;fontFamily=Helvetica;fontSize=14;fontColor=#ffffff;align=center;spacing=5;fontStyle=1;arcSize=7;perimeterSpacing=2;comic=0;glass=0;" parent="1" vertex="1">
          <mxGeometry x="710" y="780" width="120" height="60" as="geometry" />
        </mxCell>
        <mxCell id="tBkIKE94KdiAy-Hy8w5i-1800" value="XDP_TX" style="rounded=1;whiteSpace=wrap;html=1;shadow=1;labelBackgroundColor=none;strokeColor=#C73500;strokeWidth=3;fillColor=#fa6800;fontFamily=Helvetica;fontSize=14;fontColor=#ffffff;align=center;spacing=5;fontStyle=1;arcSize=7;perimeterSpacing=2;comic=0;glass=0;" parent="1" vertex="1">
          <mxGeometry x="570" y="780" width="110" height="60" as="geometry" />
        </mxCell>
        <mxCell id="tBkIKE94KdiAy-Hy8w5i-1788" value="" style="group" parent="1" vertex="1" connectable="0">
          <mxGeometry x="710" y="870" width="170" height="66.5" as="geometry" />
        </mxCell>
        <mxCell id="tBkIKE94KdiAy-Hy8w5i-1789" value="Ring Buffer" style="rounded=1;whiteSpace=wrap;html=1;shadow=0;labelBackgroundColor=none;strokeColor=#FFFFFF;strokeWidth=1;fillColor=#64bbe2;fontFamily=Helvetica;fontSize=14;fontColor=#FFFFFF;align=center;spacing=5;arcSize=7;perimeterSpacing=2;" parent="tBkIKE94KdiAy-Hy8w5i-1788" vertex="1">
          <mxGeometry width="150" height="46.5" as="geometry" />
        </mxCell>
        <mxCell id="tBkIKE94KdiAy-Hy8w5i-1790" value="Ring Buffer" style="rounded=1;whiteSpace=wrap;html=1;shadow=0;labelBackgroundColor=none;strokeColor=#FFFFFF;strokeWidth=1;fillColor=#64bbe2;fontFamily=Helvetica;fontSize=14;fontColor=#FFFFFF;align=center;spacing=5;arcSize=7;perimeterSpacing=2;" parent="tBkIKE94KdiAy-Hy8w5i-1788" vertex="1">
          <mxGeometry x="10" y="10" width="150" height="46.5" as="geometry" />
        </mxCell>
        <mxCell id="tBkIKE94KdiAy-Hy8w5i-1791" value="&lt;b&gt;Ring Buffer&lt;/b&gt;" style="rounded=1;whiteSpace=wrap;html=1;shadow=0;labelBackgroundColor=none;strokeColor=#FFFFFF;strokeWidth=1;fillColor=#64bbe2;fontFamily=Helvetica;fontSize=14;fontColor=#FFFFFF;align=center;spacing=5;arcSize=7;perimeterSpacing=2;" parent="tBkIKE94KdiAy-Hy8w5i-1788" vertex="1">
          <mxGeometry x="20" y="20" width="150" height="46.5" as="geometry" />
        </mxCell>
        <mxCell id="tBkIKE94KdiAy-Hy8w5i-1801" value="" style="group" parent="1" vertex="1" connectable="0">
          <mxGeometry x="410" y="870" width="170" height="66.5" as="geometry" />
        </mxCell>
        <mxCell id="tBkIKE94KdiAy-Hy8w5i-1802" value="Ring Buffer" style="rounded=1;whiteSpace=wrap;html=1;shadow=0;labelBackgroundColor=none;strokeColor=#FFFFFF;strokeWidth=1;fillColor=#64bbe2;fontFamily=Helvetica;fontSize=14;fontColor=#FFFFFF;align=center;spacing=5;arcSize=7;perimeterSpacing=2;" parent="tBkIKE94KdiAy-Hy8w5i-1801" vertex="1">
          <mxGeometry width="150" height="46.5" as="geometry" />
        </mxCell>
        <mxCell id="tBkIKE94KdiAy-Hy8w5i-1803" value="Ring Buffer" style="rounded=1;whiteSpace=wrap;html=1;shadow=0;labelBackgroundColor=none;strokeColor=#FFFFFF;strokeWidth=1;fillColor=#64bbe2;fontFamily=Helvetica;fontSize=14;fontColor=#FFFFFF;align=center;spacing=5;arcSize=7;perimeterSpacing=2;" parent="tBkIKE94KdiAy-Hy8w5i-1801" vertex="1">
          <mxGeometry x="10" y="10" width="150" height="46.5" as="geometry" />
        </mxCell>
        <mxCell id="tBkIKE94KdiAy-Hy8w5i-1804" value="&lt;b&gt;Ring Buffer&lt;/b&gt;" style="rounded=1;whiteSpace=wrap;html=1;shadow=0;labelBackgroundColor=none;strokeColor=#FFFFFF;strokeWidth=1;fillColor=#64bbe2;fontFamily=Helvetica;fontSize=14;fontColor=#FFFFFF;align=center;spacing=5;arcSize=7;perimeterSpacing=2;" parent="tBkIKE94KdiAy-Hy8w5i-1801" vertex="1">
          <mxGeometry x="20" y="20" width="150" height="46.5" as="geometry" />
        </mxCell>
        <mxCell id="tBkIKE94KdiAy-Hy8w5i-1805" value="Device Layer" style="rounded=1;whiteSpace=wrap;html=1;shadow=0;labelBackgroundColor=none;strokeColor=#C73500;strokeWidth=3;fillColor=#FA1E59;fontFamily=Helvetica;fontSize=14;fontColor=#ffffff;align=center;spacing=5;fontStyle=1;arcSize=7;perimeterSpacing=2;" parent="1" vertex="1">
          <mxGeometry x="500" y="399.9999999999999" width="150" height="60" as="geometry" />
        </mxCell>
        <mxCell id="tBkIKE94KdiAy-Hy8w5i-1806" value="Syscall Layer" style="rounded=1;whiteSpace=wrap;html=1;shadow=0;labelBackgroundColor=none;strokeColor=none;strokeWidth=3;fillColor=#F5C378;fontFamily=Helvetica;fontSize=14;fontColor=#FFFFFF;align=center;spacing=5;arcSize=7;perimeterSpacing=2;fontStyle=1" parent="1" vertex="1">
          <mxGeometry x="650" y="220" width="150" height="60" as="geometry" />
        </mxCell>
        <mxCell id="tBkIKE94KdiAy-Hy8w5i-1811" value="ACL process" style="rounded=1;whiteSpace=wrap;html=1;shadow=0;labelBackgroundColor=none;strokeColor=#314354;strokeWidth=3;fillColor=#647687;fontFamily=Helvetica;fontSize=14;fontColor=#ffffff;align=center;spacing=5;arcSize=7;perimeterSpacing=2;fontStyle=1" parent="1" vertex="1">
          <mxGeometry x="500" y="160" width="150" height="60" as="geometry" />
        </mxCell>
        <mxCell id="tBkIKE94KdiAy-Hy8w5i-1812" value="Driver" style="text;html=1;strokeColor=none;fillColor=none;align=center;verticalAlign=middle;whiteSpace=wrap;rounded=0;shadow=1;glass=0;dashed=1;comic=0;fontStyle=3;fontSize=24;" parent="1" vertex="1">
          <mxGeometry x="370" y="520" width="40" height="20" as="geometry" />
        </mxCell>
        <mxCell id="tBkIKE94KdiAy-Hy8w5i-1814" value="XDP" style="text;html=1;strokeColor=none;fillColor=none;align=center;verticalAlign=middle;whiteSpace=wrap;rounded=0;shadow=1;glass=0;dashed=1;comic=0;fontStyle=3;fontSize=24;" parent="1" vertex="1">
          <mxGeometry x="380" y="600" width="40" height="20" as="geometry" />
        </mxCell>
        <mxCell id="tBkIKE94KdiAy-Hy8w5i-1815" value="Network Stack" style="text;html=1;strokeColor=none;fillColor=none;align=center;verticalAlign=middle;whiteSpace=wrap;rounded=0;shadow=1;glass=0;dashed=1;comic=0;fontStyle=3;fontSize=24;" parent="1" vertex="1">
          <mxGeometry x="360" y="280" width="40" height="20" as="geometry" />
        </mxCell>
        <mxCell id="tBkIKE94KdiAy-Hy8w5i-1816" value="" style="curved=1;endArrow=classic;html=1;fontSize=24;edgeStyle=orthogonalEdgeStyle;fontStyle=1;strokeWidth=2;fillColor=#cce5ff;strokeColor=#6666FF;" parent="1" edge="1">
          <mxGeometry width="50" height="50" relative="1" as="geometry">
            <mxPoint x="450" y="980" as="sourcePoint" />
            <mxPoint x="500" y="930" as="targetPoint" />
          </mxGeometry>
        </mxCell>
        <mxCell id="tBkIKE94KdiAy-Hy8w5i-1818" value="" style="curved=1;endArrow=classic;html=1;strokeColor=#6666FF;strokeWidth=2;fontSize=24;entryX=0.182;entryY=0.973;entryDx=0;entryDy=0;entryPerimeter=0;" parent="1" target="1749" edge="1">
          <mxGeometry width="50" height="50" relative="1" as="geometry">
            <mxPoint x="495" y="880" as="sourcePoint" />
            <mxPoint x="590" y="740" as="targetPoint" />
            <Array as="points">
              <mxPoint x="550" y="860" />
              <mxPoint x="550" y="780" />
            </Array>
          </mxGeometry>
        </mxCell>
        <mxCell id="tBkIKE94KdiAy-Hy8w5i-1819" value="" style="curved=1;endArrow=classic;html=1;strokeColor=#FA0800;strokeWidth=2;fontSize=24;exitX=0;exitY=0.5;exitDx=0;exitDy=0;" parent="1" source="1749" target="1764" edge="1">
          <mxGeometry width="50" height="50" relative="1" as="geometry">
            <mxPoint x="450" y="730" as="sourcePoint" />
            <mxPoint x="531.028" y="590.002" as="targetPoint" />
            <Array as="points">
              <mxPoint x="473" y="720" />
            </Array>
          </mxGeometry>
        </mxCell>
        <mxCell id="tBkIKE94KdiAy-Hy8w5i-1822" value="" style="curved=1;endArrow=classic;html=1;strokeColor=#FA650F;strokeWidth=2;fontSize=24;exitX=0.455;exitY=0.973;exitDx=0;exitDy=0;exitPerimeter=0;" parent="1" source="1749" target="tBkIKE94KdiAy-Hy8w5i-1800" edge="1">
          <mxGeometry width="50" height="50" relative="1" as="geometry">
            <mxPoint x="610" y="770" as="sourcePoint" />
            <mxPoint x="660" y="720" as="targetPoint" />
            <Array as="points">
              <mxPoint x="620" y="760" />
            </Array>
          </mxGeometry>
        </mxCell>
        <mxCell id="tBkIKE94KdiAy-Hy8w5i-1826" value="" style="curved=1;endArrow=classic;html=1;strokeColor=#FA650F;strokeWidth=2;fontSize=24;exitX=0.5;exitY=1;exitDx=0;exitDy=0;" parent="1" source="tBkIKE94KdiAy-Hy8w5i-1800" target="tBkIKE94KdiAy-Hy8w5i-1803" edge="1">
          <mxGeometry width="50" height="50" relative="1" as="geometry">
            <mxPoint x="605" y="910" as="sourcePoint" />
            <mxPoint x="655" y="860" as="targetPoint" />
            <Array as="points">
              <mxPoint x="655" y="910" />
            </Array>
          </mxGeometry>
        </mxCell>
        <mxCell id="tBkIKE94KdiAy-Hy8w5i-1829" value="" style="endArrow=classic;html=1;strokeColor=#E3C800;strokeWidth=2;fontSize=24;entryX=0.25;entryY=0;entryDx=0;entryDy=0;exitX=0.75;exitY=1;exitDx=0;exitDy=0;" parent="1" source="1749" target="tBkIKE94KdiAy-Hy8w5i-1798" edge="1">
          <mxGeometry width="50" height="50" relative="1" as="geometry">
            <mxPoint x="610" y="770" as="sourcePoint" />
            <mxPoint x="660" y="720" as="targetPoint" />
          </mxGeometry>
        </mxCell>
        <mxCell id="tBkIKE94KdiAy-Hy8w5i-1831" value="" style="endArrow=classic;html=1;strokeColor=#E3C800;strokeWidth=2;fontSize=24;entryX=0.5;entryY=0;entryDx=0;entryDy=0;exitX=0.5;exitY=1;exitDx=0;exitDy=0;" parent="1" source="tBkIKE94KdiAy-Hy8w5i-1798" target="tBkIKE94KdiAy-Hy8w5i-1790" edge="1">
          <mxGeometry width="50" height="50" relative="1" as="geometry">
            <mxPoint x="610" y="770" as="sourcePoint" />
            <mxPoint x="660" y="720" as="targetPoint" />
          </mxGeometry>
        </mxCell>
        <mxCell id="tBkIKE94KdiAy-Hy8w5i-1833" value="" style="endArrow=classic;html=1;strokeColor=#009900;strokeWidth=2;fontSize=24;exitX=0.5;exitY=0;exitDx=0;exitDy=0;entryX=0.25;entryY=1;entryDx=0;entryDy=0;" parent="1" source="1749" target="tBkIKE94KdiAy-Hy8w5i-1796" edge="1">
          <mxGeometry width="50" height="50" relative="1" as="geometry">
            <mxPoint x="610" y="770" as="sourcePoint" />
            <mxPoint x="660" y="720" as="targetPoint" />
          </mxGeometry>
        </mxCell>
        <mxCell id="tBkIKE94KdiAy-Hy8w5i-1834" value="" style="endArrow=classic;html=1;strokeColor=#009900;strokeWidth=2;fontSize=24;exitX=0.25;exitY=0;exitDx=0;exitDy=0;entryX=0.5;entryY=1;entryDx=0;entryDy=0;" parent="1" source="tBkIKE94KdiAy-Hy8w5i-1796" target="tBkIKE94KdiAy-Hy8w5i-1783" edge="1">
          <mxGeometry width="50" height="50" relative="1" as="geometry">
            <mxPoint x="635" y="678" as="sourcePoint" />
            <mxPoint x="648.4482758620691" y="652" as="targetPoint" />
          </mxGeometry>
        </mxCell>
        <mxCell id="tBkIKE94KdiAy-Hy8w5i-1835" value="" style="endArrow=classic;html=1;strokeColor=#009900;strokeWidth=2;fontSize=24;exitX=0.5;exitY=0;exitDx=0;exitDy=0;entryX=0.75;entryY=1;entryDx=0;entryDy=0;" parent="1" source="tBkIKE94KdiAy-Hy8w5i-1783" target="tBkIKE94KdiAy-Hy8w5i-1805" edge="1">
          <mxGeometry width="50" height="50" relative="1" as="geometry">
            <mxPoint x="635" y="678" as="sourcePoint" />
            <mxPoint x="636.5" y="652" as="targetPoint" />
          </mxGeometry>
        </mxCell>
        <mxCell id="BvQd3Nw5YrxMWWUmECyp-1786" value="" style="group" parent="1" vertex="1" connectable="0">
          <mxGeometry x="710" y="660" width="170" height="80" as="geometry" />
        </mxCell>
        <mxCell id="tBkIKE94KdiAy-Hy8w5i-1786" value="" style="group" parent="BvQd3Nw5YrxMWWUmECyp-1786" vertex="1" connectable="0">
          <mxGeometry width="170" height="80" as="geometry" />
        </mxCell>
        <mxCell id="1755" value="eBPF Maps" style="rounded=1;whiteSpace=wrap;html=1;shadow=0;labelBackgroundColor=none;strokeColor=#FFFFFF;strokeWidth=3;fillColor=#f08e81;fontFamily=Helvetica;fontSize=14;fontColor=#FFFFFF;align=center;spacing=5;fontStyle=0;arcSize=7;perimeterSpacing=2;" parent="tBkIKE94KdiAy-Hy8w5i-1786" vertex="1">
          <mxGeometry width="150" height="60" as="geometry" />
        </mxCell>
        <mxCell id="tBkIKE94KdiAy-Hy8w5i-1784" value="eBPF Maps" style="rounded=1;whiteSpace=wrap;html=1;shadow=0;labelBackgroundColor=none;strokeColor=#FFFFFF;strokeWidth=3;fillColor=#f08e81;fontFamily=Helvetica;fontSize=14;fontColor=#FFFFFF;align=center;spacing=5;fontStyle=0;arcSize=7;perimeterSpacing=2;" parent="tBkIKE94KdiAy-Hy8w5i-1786" vertex="1">
          <mxGeometry x="10" y="10" width="150" height="60" as="geometry" />
        </mxCell>
        <mxCell id="tBkIKE94KdiAy-Hy8w5i-1785" value="&lt;b&gt;dport Map&lt;/b&gt;" style="rounded=1;whiteSpace=wrap;html=1;shadow=0;labelBackgroundColor=none;strokeColor=#FFFFFF;strokeWidth=3;fillColor=#f08e81;fontFamily=Helvetica;fontSize=14;fontColor=#FFFFFF;align=center;spacing=5;fontStyle=0;arcSize=7;perimeterSpacing=2;" parent="tBkIKE94KdiAy-Hy8w5i-1786" vertex="1">
          <mxGeometry x="20" y="20" width="150" height="60" as="geometry" />
        </mxCell>
        <mxCell id="BvQd3Nw5YrxMWWUmECyp-1784" value="&lt;b&gt;dport Map&lt;/b&gt;" style="rounded=1;whiteSpace=wrap;html=1;shadow=0;labelBackgroundColor=none;strokeColor=#FFFFFF;strokeWidth=3;fillColor=#f08e81;fontFamily=Helvetica;fontSize=14;fontColor=#FFFFFF;align=center;spacing=5;fontStyle=0;arcSize=7;perimeterSpacing=2;" parent="tBkIKE94KdiAy-Hy8w5i-1786" vertex="1">
          <mxGeometry x="30" y="30" width="150" height="60" as="geometry" />
        </mxCell>
        <mxCell id="BvQd3Nw5YrxMWWUmECyp-1785" value="&lt;b&gt;dport Map&lt;/b&gt;" style="rounded=1;whiteSpace=wrap;html=1;shadow=0;labelBackgroundColor=none;strokeColor=#FFFFFF;strokeWidth=3;fillColor=#f08e81;fontFamily=Helvetica;fontSize=14;fontColor=#FFFFFF;align=center;spacing=5;fontStyle=0;arcSize=7;perimeterSpacing=2;" parent="tBkIKE94KdiAy-Hy8w5i-1786" vertex="1">
          <mxGeometry x="40" y="40" width="150" height="60" as="geometry" />
        </mxCell>
        <mxCell id="ur-UXzleSD0pCZPRtddn-1772" value="&lt;b&gt;dport Map&lt;/b&gt;" style="rounded=1;whiteSpace=wrap;html=1;shadow=0;labelBackgroundColor=none;strokeColor=#FFFFFF;strokeWidth=3;fillColor=#f08e81;fontFamily=Helvetica;fontSize=14;fontColor=#FFFFFF;align=center;spacing=5;fontStyle=0;arcSize=7;perimeterSpacing=2;" vertex="1" parent="tBkIKE94KdiAy-Hy8w5i-1786">
          <mxGeometry x="50" y="50" width="150" height="60" as="geometry" />
        </mxCell>
        <mxCell id="BvQd3Nw5YrxMWWUmECyp-1787" value="" style="endArrow=classic;html=1;entryX=0.059;entryY=0.023;entryDx=0;entryDy=0;entryPerimeter=0;strokeWidth=2;dashed=1;dashPattern=1 1;strokeColor=#FA0800;" parent="1" target="BvQd3Nw5YrxMWWUmECyp-1776" edge="1">
          <mxGeometry width="50" height="50" relative="1" as="geometry">
            <mxPoint x="650" y="184" as="sourcePoint" />
            <mxPoint x="510" y="360" as="targetPoint" />
          </mxGeometry>
        </mxCell>
        <mxCell id="BvQd3Nw5YrxMWWUmECyp-1788" value="" style="endArrow=classic;html=1;entryX=0.25;entryY=0;entryDx=0;entryDy=0;exitX=0;exitY=0.5;exitDx=0;exitDy=0;strokeWidth=2;dashed=1;dashPattern=1 1;strokeColor=#FA0800;" parent="1" source="BvQd3Nw5YrxMWWUmECyp-1776" target="tBkIKE94KdiAy-Hy8w5i-1806" edge="1">
          <mxGeometry width="50" height="50" relative="1" as="geometry">
            <mxPoint x="662" y="200" as="sourcePoint" />
            <mxPoint x="719.012" y="199.96399999999994" as="targetPoint" />
          </mxGeometry>
        </mxCell>
        <mxCell id="BvQd3Nw5YrxMWWUmECyp-1789" value="" style="endArrow=classic;html=1;entryX=0;entryY=0.25;entryDx=0;entryDy=0;strokeWidth=2;dashed=1;dashPattern=1 1;strokeColor=#FA0800;" parent="1" target="1749" edge="1">
          <mxGeometry width="50" height="50" relative="1" as="geometry">
            <mxPoint x="650" y="260" as="sourcePoint" />
            <mxPoint x="699.012" y="199.96399999999994" as="targetPoint" />
            <Array as="points">
              <mxPoint x="460" y="260" />
              <mxPoint x="460" y="687" />
            </Array>
          </mxGeometry>
        </mxCell>
        <mxCell id="BvQd3Nw5YrxMWWUmECyp-1792" value="&lt;b&gt;&lt;font style=&quot;font-size: 16px&quot; color=&quot;#333333&quot;&gt;netlink&lt;/font&gt;&lt;/b&gt;" style="edgeLabel;html=1;align=center;verticalAlign=middle;resizable=0;points=[];" parent="BvQd3Nw5YrxMWWUmECyp-1789" vertex="1" connectable="0">
          <mxGeometry x="0.0894" y="-1" relative="1" as="geometry">
            <mxPoint as="offset" />
          </mxGeometry>
        </mxCell>
        <mxCell id="BvQd3Nw5YrxMWWUmECyp-1790" value="" style="endArrow=classic;html=1;strokeColor=#009900;strokeWidth=2;dashed=1;dashPattern=1 1;" parent="1" edge="1">
          <mxGeometry width="50" height="50" relative="1" as="geometry">
            <mxPoint x="760" y="190" as="sourcePoint" />
            <mxPoint x="760" y="218" as="targetPoint" />
          </mxGeometry>
        </mxCell>
        <mxCell id="BvQd3Nw5YrxMWWUmECyp-1791" value="" style="endArrow=classic;html=1;entryX=0.75;entryY=0;entryDx=0;entryDy=0;exitX=1;exitY=0.75;exitDx=0;exitDy=0;strokeColor=#009900;strokeWidth=2;dashed=1;dashPattern=1 1;" parent="1" source="tBkIKE94KdiAy-Hy8w5i-1806" target="tBkIKE94KdiAy-Hy8w5i-1785" edge="1">
          <mxGeometry width="50" height="50" relative="1" as="geometry">
            <mxPoint x="662" y="200" as="sourcePoint" />
            <mxPoint x="699.012" y="199.96399999999994" as="targetPoint" />
            <Array as="points">
              <mxPoint x="840" y="266" />
            </Array>
          </mxGeometry>
        </mxCell>
        <mxCell id="BvQd3Nw5YrxMWWUmECyp-1794" value="&lt;b&gt;&lt;font style=&quot;font-size: 16px&quot;&gt;bpf&lt;/font&gt;&lt;/b&gt;" style="edgeLabel;html=1;align=center;verticalAlign=middle;resizable=0;points=[];" parent="BvQd3Nw5YrxMWWUmECyp-1791" vertex="1" connectable="0">
          <mxGeometry x="-0.0844" y="1" relative="1" as="geometry">
            <mxPoint x="-2.43" y="16.01" as="offset" />
          </mxGeometry>
        </mxCell>
        <mxCell id="BvQd3Nw5YrxMWWUmECyp-1793" value="" style="endArrow=classic;html=1;dashed=1;dashPattern=1 1;strokeColor=#009900;strokeWidth=2;entryX=0.75;entryY=0;entryDx=0;entryDy=0;" parent="1" target="1749" edge="1">
          <mxGeometry width="50" height="50" relative="1" as="geometry">
            <mxPoint x="840" y="650" as="sourcePoint" />
            <mxPoint x="510" y="580" as="targetPoint" />
            <Array as="points">
              <mxPoint x="664" y="650" />
            </Array>
          </mxGeometry>
        </mxCell>
        <mxCell id="BvQd3Nw5YrxMWWUmECyp-1795" value="" style="group" parent="1" vertex="1" connectable="0">
          <mxGeometry x="662" y="50" width="150" height="141" as="geometry" />
        </mxCell>
        <mxCell id="BvQd3Nw5YrxMWWUmECyp-1778" value="" style="group" parent="BvQd3Nw5YrxMWWUmECyp-1795" vertex="1" connectable="0">
          <mxGeometry x="50" y="6.345" width="100" height="56.400000000000006" as="geometry" />
        </mxCell>
        <mxCell id="BvQd3Nw5YrxMWWUmECyp-1772" value="&lt;b&gt;src Map&lt;/b&gt;" style="rounded=1;whiteSpace=wrap;html=1;shadow=0;labelBackgroundColor=none;strokeColor=#FFFFFF;strokeWidth=3;fillColor=#f08e81;fontFamily=Helvetica;fontSize=14;fontColor=#FFFFFF;align=center;spacing=5;fontStyle=0;arcSize=7;perimeterSpacing=2;" parent="BvQd3Nw5YrxMWWUmECyp-1778" vertex="1">
          <mxGeometry x="-3" y="-6.345" width="100" height="28.200000000000003" as="geometry" />
        </mxCell>
        <mxCell id="BvQd3Nw5YrxMWWUmECyp-1777" value="&lt;b&gt;dst Map&lt;/b&gt;" style="rounded=1;whiteSpace=wrap;html=1;shadow=0;labelBackgroundColor=none;strokeColor=#FFFFFF;strokeWidth=3;fillColor=#f08e81;fontFamily=Helvetica;fontSize=14;fontColor=#FFFFFF;align=center;spacing=5;fontStyle=0;arcSize=7;perimeterSpacing=2;" parent="BvQd3Nw5YrxMWWUmECyp-1778" vertex="1">
          <mxGeometry x="-3" y="21.855" width="100" height="28.200000000000003" as="geometry" />
        </mxCell>
        <mxCell id="BvQd3Nw5YrxMWWUmECyp-1780" value="&lt;b&gt;sport Map&lt;/b&gt;" style="rounded=1;whiteSpace=wrap;html=1;shadow=0;labelBackgroundColor=none;strokeColor=#FFFFFF;strokeWidth=3;fillColor=#f08e81;fontFamily=Helvetica;fontSize=14;fontColor=#FFFFFF;align=center;spacing=5;fontStyle=0;arcSize=7;perimeterSpacing=2;" parent="BvQd3Nw5YrxMWWUmECyp-1795" vertex="1">
          <mxGeometry x="47" y="84.60000000000001" width="100" height="28.200000000000003" as="geometry" />
        </mxCell>
        <mxCell id="BvQd3Nw5YrxMWWUmECyp-1781" value="&lt;b&gt;dport Map&lt;/b&gt;" style="rounded=1;whiteSpace=wrap;html=1;shadow=0;labelBackgroundColor=none;strokeColor=#FFFFFF;strokeWidth=3;fillColor=#f08e81;fontFamily=Helvetica;fontSize=14;fontColor=#FFFFFF;align=center;spacing=5;fontStyle=0;arcSize=7;perimeterSpacing=2;" parent="BvQd3Nw5YrxMWWUmECyp-1795" vertex="1">
          <mxGeometry x="47" y="112.80000000000001" width="100" height="28.200000000000003" as="geometry" />
        </mxCell>
        <mxCell id="BvQd3Nw5YrxMWWUmECyp-1782" value="&lt;b&gt;proto Map&lt;/b&gt;" style="rounded=1;whiteSpace=wrap;html=1;shadow=0;labelBackgroundColor=none;strokeColor=#FFFFFF;strokeWidth=3;fillColor=#f08e81;fontFamily=Helvetica;fontSize=14;fontColor=#FFFFFF;align=center;spacing=5;fontStyle=0;arcSize=7;perimeterSpacing=2;" parent="BvQd3Nw5YrxMWWUmECyp-1795" vertex="1">
          <mxGeometry x="47" y="56.400000000000006" width="100" height="28.200000000000003" as="geometry" />
        </mxCell>
        <mxCell id="BvQd3Nw5YrxMWWUmECyp-1776" value="ACL Program" style="rounded=1;whiteSpace=wrap;html=1;shadow=0;labelBackgroundColor=none;strokeColor=none;strokeWidth=3;fillColor=#2F5B7C;fontFamily=Helvetica;fontSize=16;fontColor=#FFFFFF;align=center;fontStyle=1;spacing=5;arcSize=7;perimeterSpacing=2;rotation=-90;" parent="BvQd3Nw5YrxMWWUmECyp-1795" vertex="1">
          <mxGeometry x="-57.5" y="43.5" width="165" height="28.2" as="geometry" />
        </mxCell>
        <mxCell id="ur-UXzleSD0pCZPRtddn-1771" value="&lt;b&gt;action Map&lt;/b&gt;" style="rounded=1;whiteSpace=wrap;html=1;shadow=0;labelBackgroundColor=none;strokeColor=#FFFFFF;strokeWidth=3;fillColor=#f08e81;fontFamily=Helvetica;fontSize=14;fontColor=#FFFFFF;align=center;spacing=5;fontStyle=0;arcSize=7;perimeterSpacing=2;" vertex="1" parent="1">
          <mxGeometry x="710" y="21.8" width="100" height="28.200000000000003" as="geometry" />
        </mxCell>
      </root>
    </mxGraphModel>
  </diagram>
</mxfile>
